#!OML:ASF H:\Terrain\Walking\May29\JustinRory\Justin.ASF
:FULLY-SPECIFIED
:DEGREES
114
root 11.0552 16.2036 -6.5497 -2.86024 -47.9669 3.43758
lowerback 12.6451 1.96838 -3.12613
upperback 3.0447 2.18093 0.858024
thorax -4.03657 1.08118 2.31431
lowerneck -18.0375 4.11104 -6.45303
upperneck 22.0721 7.51231 0.106056
head 9.74931 2.90039 2.09587
rclavicle 2.39536e-014 -1.59028e-015
rhumerus -22.321 5.67256 -90.2758
rradius 110.961
rwrist 0.32975
rhand -42.3184 37.2138
rfingers 7.12502
rthumb -15.2019 7.79231
lclavicle 2.39536e-014 -1.59028e-015
lhumerus 15.9041 -58.6567 83.574
lradius 91.9961
lwrist -11.5321
lhand -13.0168 41.8305
lfingers 7.12502
lthumb 13.077 71.4006
rfemur -22.3007 -9.63456 37.5663
rtibia 51.0863
rfoot -27.7771 -12.8083
rtoes 21.9703
lfemur -41.2601 2.12568 -8.1876
ltibia 60.6356
lfoot -11.9472 -10.9791
ltoes -20.2075
115
root 10.8753 16.2028 -6.48833 -2.44528 -48.0759 3.11256
lowerback 12.6152 2.05227 -3.07944
upperback 2.93707 2.3023 0.901615
thorax -4.14105 1.14466 2.31267
lowerneck -17.8744 4.08372 -6.32988
upperneck 21.8929 7.42311 0.0849843
head 9.66399 2.87693 2.04808
rclavicle -4.56211e-014 1.55052e-014
rhumerus -22.7167 5.45261 -90.0702
rradius 111.09
rwrist 0.595355
rhand -43.2071 38.9131
rfingers 7.12502
rthumb -16.0578 9.55848
lclavicle -4.56211e-014 1.55052e-014
lhumerus 15.7051 -58.8642 83.7209
lradius 91.8213
lwrist -10.7747
lhand -12.4406 40.4518
lfingers 7.12502
lthumb 13.6324 69.9853
rfemur -21.9186 -10.5395 37.8993
rtibia 51.3048
rfoot -27.5076 -11.4714
rtoes 19.5575
lfemur -42.0374 1.42337 -8.40472
ltibia 56.9279
lfoot -10.921 -12.6925
ltoes -20.0591
116
root 10.6936 16.2041 -6.42564 -2.37963 -48.2607 3.06134
lowerback 12.5972 2.03113 -3.23082
upperback 2.88756 2.2512 0.807186
thorax -4.18162 1.1221 2.3072
lowerneck -17.359 4.28631 -6.06929
upperneck 21.5577 7.56369 0.123795
head 9.45163 2.9885 2.01204
rclavicle 4.25399e-014 -1.59028e-015
rhumerus -23.0905 5.39978 -90.2157
rradius 111.386
rwrist 0.796064
rhand -43.3453 39.9464
rfingers 7.12502
rthumb -16.1909 10.6026
lclavicle 4.25399e-014 -1.59028e-015
lhumerus 15.3102 -58.8408 83.7121
lradius 91.6337
lwrist -9.7468
lhand -12.2756 39.1775
lfingers 7.12502
lthumb 13.7914 68.7003
rfemur -21.4475 -11.4175 37.9667
rtibia 51.7651
rfoot -27.1186 -10.1226
rtoes 17.6204
lfemur -42.3908 0.673563 -8.71578
ltibia 53.2068
lfoot -9.61072 -14.1619
ltoes -19.5188
117
root 10.5153 16.2014 -6.36571 -1.8819 -48.536 2.34096
lowerback 12.6363 1.91996 -2.94825
upperback 2.92769 2.13795 0.800253
thorax -4.14331 1.0617 2.15885
lowerneck -17.2584 4.59824 -5.7027
upperneck 21.4761 7.85977 0.222719
head 9.40146 3.17262 2.01766
rclavicle -2.72832e-014 5.56597e-015
rhumerus -23.2914 5.53673 -90.3775
rradius 111.707
rwrist 0.850721
rhand -43.3787 40.2095
rfingers 7.12502
rthumb -16.223 10.8683
lclavicle -2.72832e-014 5.56597e-015
lhumerus 15.3467 -58.7096 83.1882
lradius 91.4943
lwrist -8.46692
lhand -12.5686 38.75
lfingers 7.12502
lthumb 13.509 68.2918
rfemur -21.0388 -12.3584 38.511
rtibia 52.4641
rfoot -26.7628 -8.82116
rtoes 16.7662
lfemur -42.5268 0.262996 -8.52454
ltibia 49.6329
lfoot -7.36241 -15.4976
ltoes -18.0672
118
root 10.3403 16.2065 -6.30385 -1.21063 -49.043 1.41351
lowerback 12.6659 2.0152 -2.46802
upperback 2.98233 2.32669 0.86469
thorax -4.09797 1.14859 1.92466
lowerneck -17.3068 4.76172 -5.46718
upperneck 21.4446 7.99769 0.335105
head 9.39709 3.27068 2.03584
rclavicle -3.77194e-014 -3.18055e-015
rhumerus -23.5334 5.39899 -90.2658
rradius 112.067
rwrist 0.551872
rhand -43.6396 40.7003
rfingers 7.12502
rthumb -16.4743 11.3797
lclavicle -3.77194e-014 -3.18055e-015
lhumerus 15.4562 -58.7884 82.9241
lradius 91.4654
lwrist -7.43684
lhand -12.2699 38.3895
lfingers 7.12502
lthumb 13.7969 67.912
rfemur -20.7898 -13.4681 39.1262
rtibia 53.4241
rfoot -25.9734 -7.36754
rtoes 15.5117
lfemur -42.446 -0.142863 -8.07701
ltibia 46.2747
lfoot -4.58985 -16.0196
ltoes -18.1893
119
root 10.1659 16.2218 -6.23661 -1.05996 -49.5837 1.09171
lowerback 12.7356 2.17446 -2.29423
upperback 2.98629 2.5554 0.829438
thorax -4.13522 1.25961 1.75026
lowerneck -17.045 4.92176 -5.28102
upperneck 21.2945 8.14393 0.334134
head 9.29859 3.36264 2.01026
rclavicle 8.44835e-016 -1.23246e-014
rhumerus -24.0636 5.04856 -89.982
rradius 112.736
rwrist 0.0459211
rhand -43.5922 40.3217
rfingers 7.12502
rthumb -16.4286 10.9974
lclavicle 8.44835e-016 -1.23246e-014
lhumerus 14.9988 -58.8136 83.1841
lradius 91.6466
lwrist -6.91476
lhand -11.2654 38.5404
lfingers 7.12502
lthumb 14.7648 67.9945
rfemur -20.6302 -14.6828 39.1394
rtibia 54.7092
rfoot -24.9016 -5.5703
rtoes 14.3976
lfemur -42.1262 -0.909484 -7.94907
ltibia 43.2422
lfoot -2.2662 -15.5167
ltoes -20.193
120
root 9.99527 16.2299 -6.17299 -1.40272 -50.1649 1.30755
lowerback 12.8834 2.2831 -2.56125
upperback 3.04928 2.65558 0.784024
thorax -4.16458 1.30969 1.83297
lowerneck -16.9419 5.12615 -5.04563
upperneck 21.174 8.43796 -0.0304747
head 9.25845 3.4811 1.87806
rclavicle -1.01877e-014 -8.15017e-015
rhumerus -24.3461 4.76964 -89.5841
rradius 113.225
rwrist 0.322343
rhand -42.9808 38.6742
rfingers 7.12502
rthumb -15.8398 9.30214
lclavicle -1.01877e-014 -8.15017e-015
lhumerus 14.2796 -58.4858 83.7472
lradius 91.8601
lwrist -6.90425
lhand -10.1679 38.8955
lfingers 7.12502
lthumb 15.822 68.269
rfemur -20.5853 -15.6039 38.688
rtibia 56.3702
rfoot -23.6081 -3.61382
rtoes 13.6264
lfemur -41.664 -1.46211 -8.22091
ltibia 40.6171
lfoot 0.0334723 -14.6485
ltoes -20.0418
121
root 9.82417 16.2285 -6.10721 -1.64964 -51.1205 1.25283
lowerback 12.9609 2.52056 -2.89163
upperback 3.23804 2.92843 0.978851
thorax -4.04949 1.44186 2.17852
lowerneck -16.7884 5.33863 -5.12386
upperneck 20.9445 8.82085 -0.407963
head 9.15844 3.62012 1.79709
rclavicle -1.51573e-014 -4.77083e-015
rhumerus -24.1342 4.55343 -88.996
rradius 113.372
rwrist 0.696856
rhand -42.2773 38.2597
rfingers 7.12502
rthumb -15.1622 8.83515
lclavicle -1.51573e-014 -4.77083e-015
lhumerus 13.5501 -58.0256 84.5278
lradius 92.103
lwrist -7.40854
lhand -9.82375 38.9541
lfingers 7.12502
lthumb 16.1534 68.301
rfemur -20.4921 -16.214 38.2745
rtibia 58.431
rfoot -21.8889 -1.49496
rtoes 13.0055
lfemur -40.872 -1.44392 -8.31746
ltibia 38.4568
lfoot 2.33262 -13.7022
ltoes -17.2488
122
root 9.65169 16.2292 -6.033 -1.42352 -52.1743 0.671836
lowerback 12.7556 2.80506 -2.73639
upperback 3.47695 3.3376 1.23894
thorax -3.71895 1.63456 2.30889
lowerneck -16.6169 5.52729 -5.35516
upperneck 20.7535 9.14896 -0.528577
head 9.04924 3.75158 1.81976
rclavicle 8.87574e-014 -1.27222e-014
rhumerus -23.9432 4.3705 -88.2878
rradius 113.736
rwrist 0.123185
rhand -43.3823 38.8685
rfingers 7.12502
rthumb -16.2265 9.52758
lclavicle 8.87574e-014 -1.27222e-014
lhumerus 13.168 -57.7813 84.856
lradius 92.3956
lwrist -8.14073
lhand -9.8772 38.9995
lfingers 7.12502
lthumb 16.1019 68.3505
rfemur -20.5824 -16.8398 38.0276
rtibia 60.8066
rfoot -19.6016 0.603184
rtoes 11.0229
lfemur -40.0587 -1.16488 -8.15419
ltibia 36.8173
lfoot 3.92372 -13.0335
ltoes -12.0292
123
root 9.48266 16.2308 -5.95818 -1.76543 -53.1479 0.843626
lowerback 12.4889 3.05777 -2.8438
upperback 3.74825 3.66165 1.2744
thorax -3.31854 1.78512 2.37285
lowerneck -16.6415 5.74699 -5.58725
upperneck 20.6092 9.48047 -0.407075
head 8.97631 3.90951 1.93139
rclavicle 1.48293e-013 -2.22639e-014
rhumerus -23.7459 4.3314 -87.7492
rradius 114.169
rwrist -0.775986
rhand -44.9587 38.6916
rfingers 7.12502
rthumb -17.7439 9.48121
lclavicle 1.48293e-013 -2.22639e-014
lhumerus 13.0375 -57.5872 84.7689
lradius 92.6805
lwrist -8.68404
lhand -10.4754 39.121
lfingers 7.12502
lthumb 15.5258 68.5177
rfemur -20.9289 -17.4153 37.077
rtibia 63.3409
rfoot -16.5449 2.96266
rtoes 8.157
lfemur -39.3387 -0.84794 -8.65695
ltibia 35.8002
lfoot 4.34044 -12.7729
ltoes -10.7219
124
root 9.31692 16.2225 -5.87691 -2.83102 -54.2478 1.64806
lowerback 12.485 3.29228 -3.21671
upperback 3.98144 3.91404 1.12959
thorax -3.10231 1.90206 2.39803
lowerneck -16.4199 6.07902 -5.47637
upperneck 20.3465 9.91544 -0.563104
head 8.84791 4.11901 1.89523
rclavicle -5.33737e-014 1.78906e-014
rhumerus -23.3685 4.30957 -87.4697
rradius 114.353
rwrist -1.35771
rhand -44.5744 37.4784
rfingers 7.12502
rthumb -17.374 8.23494
lclavicle -5.33737e-014 1.78906e-014
lhumerus 12.3507 -57.2604 84.9799
lradius 93.0211
lwrist -9.03756
lhand -12.1562 39.3662
lfingers 7.12502
lthumb 13.9065 68.8812
rfemur -21.1622 -17.8049 35.3698
rtibia 65.9045
rfoot -12.7295 5.76004
rtoes 6.90064
lfemur -38.3787 -0.820371 -9.39599
ltibia 35.5264
lfoot 3.87882 -12.535
ltoes -13.2632
125
root 9.15914 16.2103 -5.79171 -3.1382 -55.3695 1.35781
lowerback 12.7178 3.42737 -2.7439
upperback 4.08557 4.13671 1.10783
thorax -3.10123 2.00816 2.06661
lowerneck -15.9777 6.39417 -5.0366
upperneck 20.2137 10.3122 -1.07212
head 8.76715 4.29174 1.68221
rclavicle 5.01931e-014 -2.18663e-014
rhumerus -23.0068 4.16702 -87.2415
rradius 114.409
rwrist -1.80735
rhand -43.6317 35.8752
rfingers 7.12502
rthumb -16.4667 6.55398
lclavicle 5.01931e-014 -2.18663e-014
lhumerus 10.8213 -56.8064 85.9069
lradius 93.5618
lwrist -9.45046
lhand -13.4255 39.6599
lfingers 7.12502
lthumb 12.683 69.2547
rfemur -21.3273 -18.1008 34.1245
rtibia 68.2946
rfoot -8.55521 8.53764
rtoes 6.03628
lfemur -37.4826 -1.38108 -8.93601
ltibia 36.083
lfoot 3.42135 -11.6593
ltoes -15.0012
126
root 9.01081 16.2005 -5.71333 -3.08179 -56.3098 0.58009
lowerback 13.0497 3.3353 -2.0202
upperback 4.21854 4.0902 1.1264
thorax -3.09186 1.97991 1.67568
lowerneck -15.6959 6.85681 -4.36831
upperneck 20.0359 10.8585 -1.53662
head 8.71021 4.55804 1.47169
rclavicle 7.35503e-015 7.95139e-015
rhumerus -22.5171 4.32132 -87.2718
rradius 114.377
rwrist -2.17263
rhand -43.5349 35.0179
rfingers 7.12502
rthumb -16.3734 5.68903
lclavicle 7.35503e-015 7.95139e-015
lhumerus 9.14718 -55.905 86.766
lradius 94.1951
lwrist -9.82009
lhand -13.9716 39.6649
lfingers 7.12502
lthumb 12.1565 69.2917
rfemur -21.5142 -18.5165 33.083
rtibia 70.4524
rfoot -4.906 11.1429
rtoes 2.24182
lfemur -36.7301 -2.22098 -7.92851
ltibia 37.4571
lfoot 2.75436 -10.2097
ltoes -12.0944
